<?xml version="1.0" encoding="UTF-8"?> <!-- Generator: Adobe Illustrator 16.0.0, SVG Export Plug-In . SVG Version: 6.00 Build 0) --> <svg xmlns="http://www.w3.org/2000/svg" xmlns:xlink="http://www.w3.org/1999/xlink" version="1.1" id="Layer_1" x="0px" y="0px" width="524px" height="127px" viewBox="0 0 524 127" xml:space="preserve"> <g> <g> <path fill="#FFFFFF" d="M102.525,34.111c-9.601-13.748-25.528-22.748-43.569-22.748c-29.334,0-53.113,23.779-53.113,53.113 c0,28.412,22.309,51.615,50.368,53.042c30.43,1.562,55.859-22.676,55.859-53.042C112.07,53.182,108.535,42.717,102.525,34.111z M59.03,107.498c-3.85,0-7.578-0.517-11.132-1.469v-8.405c35.902,12.089,62.646-34.106,34.335-59.27v26.13 c0,17.412-18.79,28.889-34.335,20.35V74.732c2.771,3.008,6.729,4.906,11.132,4.906c12.91,0,20.216-15.545,11.132-25.406 c-9.402-10.205-26.289-3.38-26.289,10.251c0,8.079,0,32.04,0,40.249c-16.396-6.194-27.858-22.003-27.858-40.249 c0-28.372,27.025-48.822,54.147-41.545v8.403c-22.58-7.601-46.102,9.288-46.102,33.142c0,10.25,4.461,19.636,11.766,26.128V64.483 c0-19.534,23.165-30.679,38.359-17.53c0-10.315,0-12.15,0-22.72C118.21,40.864,107.288,107.498,59.03,107.498z"></path> </g> <g> <path fill="#FFFFFF" d="M192.572,32.529c0.176,0.402,0.263,0.804,0.263,1.206c0,1.928-1.054,2.892-3.163,2.892 c-1.29,0-2.257-0.576-2.9-1.727c-3.311-6.534-8.949-9.801-16.917-9.801c-5.332,0-9.842,1.647-13.533,4.94 c-3.604,3.241-5.654,7.378-6.152,12.413c-0.469,4.392-0.469,8.784,0,13.175c0.996,9.694,6.299,15.398,15.907,17.112 c1.698,0.295,2.548,1.206,2.548,2.732c0,1.794-0.997,2.691-2.988,2.691c-0.235,0-0.513-0.014-0.835-0.04 c-0.263-0.027-0.556-0.068-0.879-0.12c-5.507-1.125-10.106-3.682-13.797-7.673c-3.779-4.097-5.887-8.971-6.328-14.621 c-0.38-4.445-0.38-8.89,0-13.336c0.498-6.48,3.179-11.89,8.042-16.229c4.95-4.418,10.956-6.627,18.015-6.627 C180.576,19.515,188.148,23.853,192.572,32.529z M188.309,47.473c3.779,0,5.668,1.701,5.668,5.101v5.704 c0,4.714-1.625,8.904-4.877,12.572c-3.369,3.803-7.792,6.186-13.27,7.151c-0.352,0.052-0.645,0.093-0.879,0.12l-0.835,0.04 c-1.992,0-2.987-0.896-2.987-2.691c0-1.526,0.835-2.437,2.505-2.732c9.373-1.392,14.061-5.998,14.061-13.818v-5.664h-13.841 c-2.169,0-3.252-0.964-3.252-2.892c0-1.928,1.083-2.892,3.252-2.892H188.309z"></path> <path fill="#FFFFFF" d="M250.792,45.826c0.82,1.821,0.219,3.093-1.802,3.815c-1.993,0.697-3.369,0.148-4.131-1.647l-9.184-21.249 c-0.38-0.991-1.186-1.487-2.417-1.487c-1.23,0-2.05,0.496-2.46,1.487l-11.073,25.587h26.583c4.862,0,8.099,1.808,9.71,5.423 l7.03,16.147c0.791,1.795,0.191,3.053-1.801,3.776c-1.992,0.696-3.384,0.147-4.174-1.647l-6.987-16.107 c-0.527-1.286-1.523-1.928-2.987-1.928h-29.879l-7.821,18.036c-0.763,1.794-2.139,2.343-4.13,1.647 c-2.022-0.723-2.623-1.981-1.802-3.776l21.398-49.206c1.552-3.454,4.351-5.182,8.393-5.182c4.043,0,6.826,1.728,8.35,5.182 L250.792,45.826z"></path> <path fill="#FFFFFF" d="M308.794,53.016c-0.411,0.215-0.923,0.321-1.539,0.321c-2.109,0-3.163-0.937-3.163-2.812 c0-1.178,0.57-2.021,1.713-2.531c4.306-2.114,6.46-5.569,6.46-10.363c0-7.846-4.614-11.77-13.842-11.77h-18.104v23.177h11.996 c4.276,0,7.777,1.566,10.502,4.7l16.917,19.401c1.377,1.581,1.23,2.932-0.439,4.057c-1.612,1.366-3.105,1.245-4.482-0.362 L297.72,57.273c-0.703-0.803-1.376-1.392-2.021-1.768c-0.968-0.588-2.095-0.884-3.384-0.884h-11.996v20.246 c0,1.981-1.04,2.972-3.119,2.972c-2.108,0-3.164-0.99-3.164-2.972V25.34c0-3.401,1.89-5.102,5.669-5.102h18.981 c5.713,0,10.414,1.5,14.105,4.499c3.983,3.188,5.975,7.512,5.975,12.975C318.767,44.755,315.442,49.856,308.794,53.016z"></path> <path fill="#FFFFFF" d="M335.729,25.34c0-3.401,1.89-5.102,5.668-5.102h31.77c2.167,0,3.251,0.964,3.251,2.892 s-1.084,2.892-3.251,2.892h-31.153v15.947c0,1.982-1.041,2.972-3.121,2.972c-2.108,0-3.163-0.99-3.163-2.972V25.34z M335.729,54.141c0-2.25,0.879-4.178,2.637-5.784c1.758-1.607,3.852-2.396,6.282-2.371h27.815c2.138,0,3.208,0.938,3.208,2.813 c0,1.928-1.07,2.892-3.208,2.892h-27.727c-1.816,0-2.724,0.817-2.724,2.451v17.955h31.328c2.168,0,3.252,0.951,3.252,2.852 c0,1.928-1.084,2.892-3.252,2.892h-31.944c-3.778,0-5.668-1.7-5.668-5.101V54.141z"></path> <path fill="#FFFFFF" d="M398.519,26.585h-0.176l0.176,5.222c0.059,2.303,0.088,4.593,0.088,6.869v36.192 c0,1.981-1.04,2.972-3.12,2.972c-2.108,0-3.164-0.99-3.164-2.972V25.621c0-3.589,1.86-5.383,5.581-5.383 c2.168,0,3.998,0.964,5.493,2.892l15.115,20.968c0.352,0.509,0.527,1.031,0.527,1.566c0,1.929-1.041,2.893-3.12,2.893 c-1.084,0-1.963-0.442-2.637-1.326L398.519,26.585z M418.16,53.899c-0.381-0.482-0.572-1.004-0.572-1.567 c0-1.928,1.056-2.892,3.164-2.892c1.025,0,1.905,0.469,2.638,1.406l14.455,20.245h0.176l-0.176-5.062 c-0.116-2.276-0.175-4.512-0.175-6.708V23.21c0-1.981,1.055-2.972,3.162-2.972c2.11,0,3.164,0.991,3.164,2.972v49.528 c0,3.401-1.771,5.101-5.316,5.101c-2.196,0-3.939-0.909-5.229-2.731L418.16,53.899z"></path> <path fill="#FFFFFF" d="M504.195,45.826c0.819,1.821,0.219,3.093-1.802,3.815c-1.993,0.697-3.369,0.148-4.131-1.647l-9.184-21.249 c-0.381-0.991-1.187-1.487-2.417-1.487c-1.229,0-2.05,0.496-2.46,1.487l-11.073,25.587h26.584c4.862,0,8.1,1.808,9.711,5.423 l7.031,16.147c0.789,1.795,0.189,3.053-1.802,3.776c-1.993,0.696-3.384,0.147-4.175-1.647l-6.986-16.107 c-0.528-1.286-1.524-1.928-2.988-1.928h-29.879l-7.822,18.036c-0.762,1.794-2.139,2.343-4.13,1.647 c-2.021-0.723-2.622-1.981-1.802-3.776l21.399-49.206c1.552-3.454,4.35-5.182,8.392-5.182c4.044,0,6.826,1.728,8.349,5.182 L504.195,45.826z"></path> </g> <g> <path fill="#F1F2F2" d="M170.215,90.478c-0.023-0.103-0.062-0.179-0.118-0.23c-0.067-0.082-0.156-0.123-0.268-0.123 c-0.191,0-0.325,0.107-0.403,0.322l-5.267,17.618c-0.402,1.462-1.281,2.193-2.634,2.193c-1.319,0-2.203-0.731-2.649-2.193 l-5.25-17.618c-0.079-0.214-0.218-0.322-0.419-0.322c-0.113,0-0.202,0.041-0.269,0.123c-0.056,0.051-0.09,0.127-0.1,0.23 l-3.506,18.936c-0.123,0.747-0.627,1.027-1.51,0.844c-0.705-0.164-0.995-0.613-0.872-1.35l3.606-18.722 c0.302-1.461,1.186-2.192,2.651-2.192c1.442,0,2.348,0.648,2.717,1.947l5.25,17.894c0.022,0.103,0.061,0.179,0.117,0.23 c0.067,0.082,0.157,0.123,0.269,0.123c0.224,0,0.357-0.118,0.402-0.353l5.166-17.894c0.358-1.299,1.258-1.947,2.701-1.947 c1.464,0,2.348,0.731,2.649,2.192l3.64,18.722c0.134,0.736-0.151,1.186-0.856,1.35c-0.883,0.184-1.387-0.097-1.509-0.844 L170.215,90.478z"></path> <path fill="#F1F2F2" d="M185.629,92.011c-1.375,1.237-2.158,2.817-2.348,4.738c-0.179,1.677-0.179,3.354,0,5.03 c0.379,3.669,2.371,5.827,5.971,6.47c0.649,0.113,0.973,0.46,0.973,1.042c0,0.686-0.38,1.028-1.141,1.028 c-0.089,0-0.196-0.005-0.319-0.016c-0.101-0.01-0.212-0.026-0.335-0.046c-2.103-0.429-3.841-1.396-5.216-2.898 c-1.409-1.543-2.197-3.394-2.365-5.551c-0.146-1.697-0.146-3.394,0-5.091c0.19-2.474,1.213-4.539,3.069-6.195 c1.89-1.686,4.182-2.529,6.878-2.529c2.706,0,5.003,0.843,6.894,2.529c1.855,1.656,2.879,3.722,3.07,6.195 c0.145,1.697,0.145,3.394,0,5.091c-0.168,2.157-0.956,4.007-2.365,5.551c-1.376,1.502-3.115,2.469-5.217,2.898 c-0.124,0.02-0.235,0.036-0.336,0.046l-0.319,0.016c-0.76,0-1.14-0.342-1.14-1.028c0-0.582,0.323-0.929,0.972-1.042 c3.601-0.644,5.591-2.801,5.971-6.47c0.167-1.677,0.167-3.353,0-5.03c-0.19-1.921-0.979-3.501-2.364-4.738 c-1.398-1.257-3.121-1.886-5.166-1.886C188.76,90.125,187.039,90.754,185.629,92.011z"></path> <path fill="#F1F2F2" d="M209.163,109.123c0,0.756-0.397,1.135-1.191,1.135c-0.805,0-1.207-0.378-1.207-1.135V90.217 c0-1.299,0.721-1.948,2.164-1.948h7.799c2.137,0,3.836,0.567,5.1,1.702c1.15,1.042,1.727,2.351,1.727,3.925 c0,1.391-0.318,2.515-0.955,3.373c-0.549,0.727-1.314,1.248-2.298,1.564v0.03c2.627,0.563,3.942,2.275,3.942,5.137 c0,2.157-0.705,3.772-2.114,4.846c-1.219,0.94-2.885,1.411-4.998,1.411h-5.771c-0.816,0-1.225-0.368-1.225-1.104 c0-0.706,0.409-1.058,1.225-1.058h5.435c3.321,0,4.981-1.365,4.981-4.094c0-2.678-1.521-4.017-4.563-4.017h-8.051V109.123z M216.661,97.792c2.974,0,4.461-1.227,4.461-3.68c0-2.463-1.487-3.695-4.461-3.695h-7.498v7.375H216.661z"></path> <path fill="#F1F2F2" d="M229.912,89.404c0-0.756,0.402-1.134,1.208-1.134c0.794,0,1.191,0.378,1.191,1.134v19.719 c0,0.756-0.397,1.135-1.191,1.135c-0.805,0-1.208-0.378-1.208-1.135V89.404z"></path> <path fill="#F1F2F2" d="M239.523,89.404c0-0.756,0.402-1.134,1.207-1.134c0.794,0,1.192,0.378,1.192,1.134v18.661h11.624 c0.816,0,1.224,0.363,1.224,1.089c0,0.736-0.408,1.104-1.224,1.104h-11.859c-1.442,0-2.164-0.649-2.164-1.947V89.404z"></path> <path fill="#F1F2F2" d="M258.711,90.217c0-1.299,0.722-1.948,2.164-1.948h12.127c0.828,0,1.241,0.368,1.241,1.104 c0,0.736-0.413,1.105-1.241,1.105h-11.893v6.086c0,0.757-0.396,1.135-1.19,1.135c-0.805,0-1.208-0.378-1.208-1.135V90.217z M258.711,101.211c0-0.858,0.335-1.595,1.006-2.208c0.672-0.614,1.471-0.915,2.399-0.906h10.617c0.815,0,1.225,0.359,1.225,1.074 c0,0.737-0.409,1.104-1.225,1.104H262.15c-0.694,0-1.041,0.312-1.041,0.935v6.854h11.96c0.827,0,1.241,0.363,1.241,1.089 c0,0.736-0.414,1.104-1.241,1.104h-12.194c-1.442,0-2.164-0.649-2.164-1.947V101.211z"></path> <path fill="#F1F2F2" d="M279.106,107.712c0-0.756,0.404-1.134,1.209-1.134c0.793,0,1.19,0.378,1.19,1.134v1.411 c0,0.756-0.397,1.135-1.19,1.135c-0.805,0-1.209-0.378-1.209-1.135V107.712z"></path> <path fill="#F1F2F2" d="M302.825,104.477c0.224-0.48,0.604-0.721,1.141-0.721c0.771,0,1.157,0.348,1.157,1.042 c0,0.154-0.034,0.307-0.101,0.46c-1.499,3.516-4.361,5.274-8.588,5.274c-2.896,0-5.312-0.945-7.246-2.836 c-1.89-1.86-2.818-4.125-2.784-6.793c0-0.797,0.403-1.196,1.207-1.196c0.795,0,1.191,0.369,1.191,1.104 c0.056,2.188,0.777,3.992,2.164,5.413c1.42,1.452,3.243,2.177,5.468,2.177C299.51,108.402,301.64,107.094,302.825,104.477z M305.022,93.269c0.066,0.153,0.101,0.312,0.101,0.475c0,0.685-0.386,1.027-1.157,1.027c-0.537,0-0.917-0.24-1.141-0.72 c-1.186-2.618-3.315-3.926-6.391-3.926c-2.225,0-4.048,0.73-5.468,2.193c-1.387,1.42-2.108,3.225-2.164,5.412 c0,0.736-0.396,1.104-1.191,1.104c-0.804,0-1.207-0.398-1.207-1.196c-0.034-2.679,0.895-4.947,2.784-6.808 c1.935-1.891,4.35-2.836,7.246-2.836C300.661,87.994,303.523,89.752,305.022,93.269z"></path> <path fill="#F1F2F2" d="M314.533,92.011c-1.376,1.237-2.158,2.817-2.349,4.738c-0.18,1.677-0.18,3.354,0,5.03 c0.38,3.669,2.371,5.827,5.972,6.47c0.648,0.113,0.972,0.46,0.972,1.042c0,0.686-0.379,1.028-1.141,1.028 c-0.089,0-0.194-0.005-0.317-0.016c-0.101-0.01-0.213-0.026-0.336-0.046c-2.103-0.429-3.841-1.396-5.217-2.898 c-1.409-1.543-2.197-3.394-2.364-5.551c-0.146-1.697-0.146-3.394,0-5.091c0.19-2.474,1.212-4.539,3.068-6.195 c1.891-1.686,4.183-2.529,6.878-2.529c2.706,0,5.005,0.843,6.893,2.529c1.857,1.656,2.881,3.722,3.071,6.195 c0.145,1.697,0.145,3.394,0,5.091c-0.169,2.157-0.957,4.007-2.366,5.551c-1.375,1.502-3.114,2.469-5.216,2.898 c-0.123,0.02-0.234,0.036-0.336,0.046l-0.318,0.016c-0.761,0-1.141-0.342-1.141-1.028c0-0.582,0.323-0.929,0.973-1.042 c3.601-0.644,5.592-2.801,5.972-6.47c0.168-1.677,0.168-3.353,0-5.03c-0.19-1.921-0.979-3.501-2.365-4.738 c-1.398-1.257-3.12-1.886-5.166-1.886C317.663,90.125,315.942,90.754,314.533,92.011z"></path> <path fill="#F1F2F2" d="M357.741,90.478c-0.022-0.103-0.062-0.179-0.117-0.23c-0.067-0.082-0.157-0.123-0.269-0.123 c-0.191,0-0.324,0.107-0.403,0.322l-5.266,17.618c-0.403,1.462-1.281,2.193-2.634,2.193c-1.32,0-2.204-0.731-2.65-2.193 l-5.25-17.618c-0.078-0.214-0.218-0.322-0.42-0.322c-0.112,0-0.201,0.041-0.268,0.123c-0.056,0.051-0.091,0.127-0.101,0.23 l-3.506,18.936c-0.123,0.747-0.627,1.027-1.51,0.844c-0.705-0.164-0.995-0.613-0.872-1.35l3.606-18.722 c0.303-1.461,1.186-2.192,2.649-2.192c1.442,0,2.35,0.648,2.718,1.947l5.25,17.894c0.021,0.103,0.062,0.179,0.118,0.23 c0.066,0.082,0.155,0.123,0.268,0.123c0.224,0,0.358-0.118,0.403-0.353l5.165-17.894c0.357-1.299,1.259-1.947,2.701-1.947 c1.465,0,2.348,0.731,2.649,2.192l3.641,18.722c0.135,0.736-0.151,1.186-0.855,1.35c-0.885,0.184-1.387-0.097-1.51-0.844 L357.741,90.478z"></path> </g> </g> </svg> 